<?xml version="1.0" encoding="UTF-8" standalone="no"?>
<!-- Created with Inkscape (http://www.inkscape.org/) -->

<svg
   version="1.1"
   id="svg1"
   width="1024"
   height="1024"
   viewBox="0 0 1024 1024"
   sodipodi:docname="logowhite.jpeg.svg"
   inkscape:export-filename="logowhite.jpeg.svg"
   inkscape:export-xdpi="96"
   inkscape:export-ydpi="96"
   inkscape:version="1.4 (e7c3feb1, 2024-10-09)"
   xmlns:inkscape="http://www.inkscape.org/namespaces/inkscape"
   xmlns:sodipodi="http://sodipodi.sourceforge.net/DTD/sodipodi-0.dtd"
   xmlns="http://www.w3.org/2000/svg"
   xmlns:svg="http://www.w3.org/2000/svg">
  <defs
     id="defs1" />
  <sodipodi:namedview
     id="namedview1"
     pagecolor="#ffffff"
     bordercolor="#000000"
     borderopacity="0.25"
     inkscape:showpageshadow="2"
     inkscape:pageopacity="0.0"
     inkscape:pagecheckerboard="0"
     inkscape:deskcolor="#d1d1d1"
     inkscape:export-bgcolor="#ffffff37"
     inkscape:zoom="0.23547003"
     inkscape:cx="72.196025"
     inkscape:cy="626.40669"
     inkscape:window-width="1392"
     inkscape:window-height="844"
     inkscape:window-x="271"
     inkscape:window-y="38"
     inkscape:window-maximized="0"
     inkscape:current-layer="g1" />
  <g
     inkscape:groupmode="layer"
     inkscape:label="Image"
     id="g1"
     style="display:inline">
    <path
       style="fill:#000000"
       d="m 399.07307,760.11074 c -3.025,-0.68554 -6.625,-1.84262 -8,-2.57128 -9.5598,-5.0661 -17.14202,-15.2875 -18.92186,-25.50809 -4.21753,-24.21886 13.97389,-45.02811 37.84689,-43.29325 9.41598,0.68427 16.04063,3.88137 22.50064,10.85895 7.22604,7.80498 9.9774,14.80047 9.99268,25.40693 0.0125,8.70408 -2.42835,15.71335 -8.02902,23.05621 -7.43772,9.75135 -22.661,14.93508 -35.38933,12.05053 z m 16.50864,-18.68578 c 7.95129,-3.70066 12.31352,-14.86115 9.09882,-23.27873 -6.11394,-16.00914 -27.50259,-16.71296 -34.7116,-1.14223 -5.16595,11.15793 1.22669,23.62924 13.60414,26.54012 3.67432,0.86411 6.77403,0.31711 12.00864,-2.11916 z m 273.49137,18.6115 c -3.025,-0.63021 -7.34114,-2.10556 -9.59141,-3.27856 -5.77705,-3.0114 -12.96496,-10.64779 -16.14988,-17.15755 -2.34546,-4.79394 -2.71326,-6.77823 -2.71326,-14.63821 0,-8.23817 0.30551,-9.7131 3.25139,-15.69702 4.52074,-9.18294 12.16992,-16.05275 20.86381,-18.73802 15.34657,-4.74008 30.47725,-0.71769 38.39016,10.20577 l 3.03544,4.1903 -5.6423,2.68958 c -3.10327,1.47928 -6.09171,3.139 -6.641,3.68828 -0.66492,0.66493 -2.61952,-0.009 -5.84848,-2.0161 -9.00755,-5.5994 -19.4988,-4.48075 -25.85332,2.75665 -5.11397,5.82449 -6.30992,13.20495 -3.23617,19.971 5.15606,11.3497 19.15204,15.05967 29.50265,7.82038 l 4.13236,-2.8902 5.5,3.25109 c 3.025,1.78809 6.08987,3.60187 6.81083,4.03062 1.0063,0.59843 0.6578,1.64971 -1.5,4.52502 -6.99112,9.31578 -21.25293,14.00737 -34.31082,11.28697 z M 292.07307,725.11099 c 0,-39.13034 -0.45067,-36.60699 6.53794,-36.60699 3.12577,0 4.50109,1.29739 18.66821,17.61024 l 15.29385,17.61023 0.5,-17.51757 0.5,-17.51757 7.5,0.15734 7.5,0.15733 v 35.5 35.5 l -3.80406,0.31359 c -4.43164,0.36533 -6.18393,-1.19384 -18.9163,-16.83156 -4.2462,-5.21511 -9.96422,-11.95703 -12.70671,-14.98203 l -4.98635,-5.5 -0.0433,18.75 -0.0433,18.75 h -8 -8 z m 174,-0.0691 v -35.46211 l 21.50093,-0.28789 21.50094,-0.28789 -9.3e-4,8.75 -9.3e-4,8.75 h -13 -13.00001 v 5 5 h 12.50001 12.5 v 7.5 7.5 h -12.03139 c -13.5998,0 -13.64181,0.0252 -12.51905,7.51229 l 0.67297,4.48771 h 12.93874 12.93873 v 8.5 8.5 h -22.00001 -22 z m 87.21862,8.46145 0.28139,-27.00066 -10.75,6.6e-4 -10.75,6.6e-4 v -8.75 -8.75 h 29.5 29.5 v 8.75 8.75 l -10.75,-8.1e-4 -10.75,-8.1e-4 0.29591,27.00081 0.29591,27.00081 h -8.57729 -8.5773 z m 62.78139,-8.42319 V 689.6563 l 8.00234,-0.32615 8.00235,-0.32615 -0.002,35.75 -0.002,35.75 h -8 -8 z M 499.32049,466.78786 499.57308,277.004 l 9.59901,-0.28439 c 7.22399,-0.21402 9.88289,0.0577 10.74635,1.09807 0.84768,1.0214 1.21359,36.30716 1.40099,135.10378 l 0.25365,133.72133 9.1938,-9.31939 c 5.0566,-5.12567 10.10459,-10.49693 11.21776,-11.93614 2.00149,-2.58769 2.02972,-4.04166 2.54383,-131 0.48359,-119.42143 0.63879,-128.47051 2.22337,-129.63326 2.17142,-1.59335 10.54334,-1.62789 12.12124,-0.05 0.92025,0.92026 1.2,29.71112 1.2,123.5 0,72.82286 0.36822,122.3 0.9102,122.3 2.08003,0 10.95523,-8.1152 13.90853,-12.71751 l 3.18127,-4.95758 v -80.1235 -80.1235 l 2.18856,-2.03895 c 2.81576,-2.62328 8.86995,-2.73677 11.15741,-0.20915 1.51141,1.67008 1.66209,8.91878 1.72637,83.04473 0.0655,75.54215 0.18766,81.18038 1.74903,80.72028 1.55042,-0.45688 17.93386,-3.59482 18.76884,-3.59482 0.2031,0 0.49089,-30.80266 0.63953,-68.45037 0.1942,-49.18589 0.58797,-68.76799 1.39917,-69.57892 0.6209,-0.62069 2.9935,-1.37863 5.27244,-1.6843 3.13855,-0.42097 4.62316,-0.1217 6.12109,1.2339 1.93097,1.74751 1.97781,3.31126 1.98856,66.38468 0.006,35.52726 0.28993,66.28251 0.63084,68.34501 l 0.61984,3.75 h 14.86916 14.86916 v 7.5 7.5 h -18.03942 c -22.18352,0 -35.16266,1.35751 -44.96058,4.7025 -33.3341,11.38017 -64.56222,41.41441 -73.09187,70.2975 -2.02942,6.87203 -2.26482,10.34684 -2.8115,41.5 l -0.59663,34 -10.75259,0.28386 -10.75259,0.28386 z m 48.19371,146.29888 c -1.7147,-1.25195 -1.97908,-2.91956 -2.26654,-14.29608 -0.29322,-11.60443 -0.13062,-13.11938 1.64324,-15.31001 1.48833,-1.83801 2.93984,-2.43119 5.94911,-2.43119 6.8594,0 7.23307,0.85345 7.23307,16.52029 0,13.14845 -0.10813,13.89658 -2.22251,15.37755 -2.77246,1.94191 -7.77522,2.00939 -10.33637,0.13944 z m -83.40489,-5.3523 -2.18532,-1.76957 0.0963,-73.48043 c 0.10799,-82.42554 -0.53575,-75.98044 7.58895,-75.98044 7.99775,0 7.46386,-5.45462 7.46386,76.25616 v 72.59868 l -2.63486,2.07258 c -3.22862,2.53963 -7.41512,2.66245 -10.3289,0.30302 z m -59.03624,-10.48217 c -2.42544,-1.26456 -2.50844,-1.6568 -2.78283,-13.15129 -0.34915,-14.6267 0.51142,-16.59698 7.24917,-16.59698 6.56773,0 7.53366,1.93754 7.53366,15.11173 0,8.68914 -0.32445,11.05748 -1.75,12.77448 -2.22176,2.67597 -7.01782,3.54725 -10.25,1.86206 z m 211.18857,-11.78722 c -2.02392,-1.88557 -2.18856,-2.97093 -2.18856,-14.42742 0,-12.19238 0.0417,-12.42127 2.63485,-14.46105 1.44918,-1.13991 3.50376,-2.07258 4.56575,-2.07258 2.23676,0 5.96828,1.80351 7.03408,3.39971 0.40408,0.60516 0.74158,6.58013 0.75,13.27771 0.0151,11.97248 -0.029,12.2123 -2.61954,14.25 -3.34697,2.63273 -7.3725,2.64603 -10.17658,0.0336 z m -240.8732,-12.96803 c -4.81774,-1.94111 -5.86184,-9.53746 -1.86083,-13.53847 4.87685,-4.87684 13.54546,-1.65383 13.54546,5.03625 0,4.7223 -0.83506,6.37255 -4.07153,8.04619 -3.1816,1.64527 -4.46994,1.72245 -7.6131,0.45603 z m 271.94706,-5.52176 c -1.20042,-0.84081 -2.476,-3.09279 -2.83462,-5.00441 -1.22749,-6.54305 4.86224,-11.83199 10.79429,-9.37485 5.12485,2.12278 6.4319,8.53557 2.70533,13.27315 -2.40425,3.05649 -7.17414,3.5512 -10.665,1.10611 z m -67.10308,-3.99582 c -1.85823,-2.36234 -2.15934,-4.03231 -2.15934,-11.97544 0,-7.82383 0.3158,-9.63176 2.07258,-11.86514 2.41417,-3.06913 7.17747,-3.54887 10.70491,-1.07815 2.06235,1.44453 2.22251,2.3315 2.22251,12.30887 0,12.42197 -0.71405,14.01813 -6.62575,14.81105 -3.55862,0.47731 -4.32017,0.20759 -6.21491,-2.20119 z m -236.80236,-8.46702 c -8.22092,-3.31755 -6.2445,-16.00842 2.49308,-16.00842 7.12498,0 10.44935,4.95429 7.71523,11.49794 -0.86958,2.0812 -2.53453,3.92007 -4.08204,4.50843 -3.03172,1.15265 -3.27487,1.15274 -6.12627,0.002 z m 89.23792,-0.31536 c -1.68673,-1.23336 -1.78033,-4.93474 -1.66259,-65.75 0.14007,-72.34774 -0.48177,-66.94306 7.7021,-66.94306 7.77292,0 7.36558,-3.71762 7.36558,67.22251 0,61.44416 -0.0425,62.81997 -2,64.77749 -2.32869,2.32869 -8.64345,2.71242 -11.40509,0.69306 z m 246.14125,0.0569 c -1.72859,-1.31263 -3.73615,-5.82196 -3.73615,-8.39202 0,-2.76374 5.59984,-7.35798 8.96853,-7.35798 4.38787,0 8.03147,3.85616 8.03147,8.5 0,6.6609 -8.1635,11.12306 -13.26385,7.25 z M 403.51419,540.08479 c -1.89339,-1.38431 -1.94768,-3.65291 -2.2078,-92.25 -0.18871,-64.27377 0.0545,-91.60699 0.83188,-93.48557 1.64618,-3.97818 8.53054,-5.21753 12.71229,-2.28851 l 2.22251,1.5567 v 92.38659 92.3866 l -2.22251,1.5567 c -2.77548,1.94402 -8.76611,2.01668 -11.33637,0.13749 z m -29.58034,-1.50338 c -2.34911,-1.91308 -2.35939,-2.01568 -2.07863,-20.75 0.31797,-21.21822 0.35767,-21.32741 7.75399,-21.32741 7.17106,0 7.46386,0.87369 7.46386,22.27204 0,18.10214 -0.0612,18.65741 -2.22251,20.17126 -3.03382,2.12497 -8.06521,1.95634 -10.91671,-0.36589 z m -61.85279,-10.95066 c -4.76919,-1.36481 -4.97851,-3.094 -4.97851,-41.12675 0,-40.86553 -0.0942,-40.33082 7.19172,-40.80264 3.64585,-0.23609 5.12487,0.14872 6.72615,1.75 1.99691,1.99691 2.05265,3.06673 2.05265,39.39766 0,34.29922 -0.14273,37.47363 -1.75,38.92209 -2.22548,2.00557 -6.04586,2.77429 -9.24201,1.85964 z m 365.54872,-4.34925 c -1.36841,-1.95368 -1.55485,-9.66479 -1.54139,-63.75 0.008,-33.84012 0.37756,-62.09822 0.82031,-62.79577 1.20524,-1.89886 6.49963,-3.11508 10.23488,-2.35114 2.45116,0.50131 3.48326,1.35848 4.01079,3.33098 1.16206,4.34512 0.12723,123.53029 -1.09235,125.80908 -1.6066,3.00197 -10.27806,2.83237 -12.43224,-0.24315 z m 30.44329,-16.7775 c -1.90111,-1.9011 -1.99928,-3.32277 -1.98526,-28.75 0.0174,-31.55245 0.0296,-31.60379 7.64001,-32.04811 8.58855,-0.50143 8.34525,-1.4115 8.34525,31.21456 0,26.12099 -0.13923,28.39958 -1.82875,29.92857 -2.63016,2.38027 -9.64481,2.18142 -12.17125,-0.34502 z m -367.35378,-0.83842 c -1.51529,-1.67438 -1.64067,-6.64881 -1.40499,-55.74577 l 0.25877,-53.90734 3.65923,-1.19868 c 4.86869,-1.59488 10.38452,-0.14091 11.21465,2.95617 0.32934,1.22872 0.60495,25.52154 0.61246,53.98404 0.0133,50.42612 -0.0375,51.80117 -1.98634,53.75 -2.66726,2.66726 -9.99939,2.76315 -12.35378,0.16158 z m 34.66915,-32.13071 c -1.20155,-0.50493 -2.66405,-1.81385 -3.25,-2.90872 -0.72643,-1.35733 -1.06537,-25.64293 -1.06537,-76.3339 0,-84.86471 -0.64451,-78.78825 8.3567,-78.78825 2.88381,0 5.7833,0.54 6.4433,1.2 0.91232,0.91233 1.2,19.45445 1.2,77.34502 0,72.29741 -0.0917,76.22804 -1.81562,77.78812 -2.29527,2.07719 -7.02845,2.89142 -9.86901,1.69773 z m 272.18464,-0.22581 c -1.1,-0.62377 -2.33061,-1.62259 -2.73469,-2.21959 -0.40408,-0.59701 -0.74158,-35.10322 -0.75,-76.68048 -0.0146,-71.97609 0.0722,-75.67424 1.81343,-77.25 2.16949,-1.96336 9.04845,-2.20629 11.46807,-0.40499 1.54533,1.15043 1.68381,7.26777 1.73847,76.79485 0.0327,41.54966 -0.24828,76.34664 -0.62433,77.3266 -1.2331,3.21341 -7.192,4.54249 -10.91095,2.43361 z M 466.89624,433.78187 c -1.47225,-0.21812 -3.18449,-1.0083 -3.80499,-1.75595 -0.81869,-0.98646 -1.10907,-23.94506 -1.05854,-83.69064 0.0782,-92.44712 -0.60951,-84.83128 7.66006,-84.83128 7.96518,0 7.3803,-6.72956 7.3803,84.91645 0,76.62752 -0.11013,81.87029 -1.75,83.31029 -2.1606,1.89725 -4.92456,2.57002 -8.42683,2.05113 z m -34.07317,-52.35796 c -1.62602,-0.94707 -1.75,-4.23688 -1.75,-46.43441 0,-43.87715 0.0655,-45.45018 1.93425,-46.45031 1.06385,-0.56935 3.73833,-1.03519 5.9433,-1.03519 7.31076,0 7.12245,-1.26178 7.12245,47.72251 0,41.94416 -0.0616,43.33911 -2,45.27749 -2.18681,2.18681 -8.2269,2.6807 -11.25,0.91991 z m 151.01092,-74.71732 c -3.76804,-0.45854 -5.76091,-3.73469 -5.76091,-9.47055 0,-5.82346 3.1502,-9.73204 7.84376,-9.73204 4.69505,0 7.34255,2.8759 7.88347,8.56357 0.7165,7.5339 -2.98781,11.48824 -9.96632,10.63902 z"
       id="path2" />
  </g>
</svg>
